<?xml version="1.0" standalone="no"?>
<!DOCTYPE svg PUBLIC "-//W3C//DTD SVG 20010904//EN"
 "http://www.w3.org/TR/2001/REC-SVG-20010904/DTD/svg10.dtd">
<svg version="1.0" xmlns="http://www.w3.org/2000/svg"
 width="971.000000pt" height="1280.000000pt" viewBox="0 0 971.000000 1280.000000"
 preserveAspectRatio="xMidYMid meet">
<metadata>
Created by potrace 1.15, written by Peter Selinger 2001-2017
</metadata>
<g transform="translate(0.000000,1280.000000) scale(0.100000,-0.100000)"
fill="#000000" stroke="none">
<path d="M8 12788 c16 -16 16 -80 0 -96 -9 -9 -5 -12 17 -12 21 0 26 3 16 9
-20 13 -7 39 21 43 15 2 24 11 26 27 4 29 -12 41 -57 41 -27 0 -32 -3 -23 -12z
m61 -7 c19 -12 6 -41 -19 -41 -15 0 -20 7 -20 25 0 26 14 31 39 16z"/>
<path d="M108 12788 c16 -16 16 -80 0 -96 -9 -9 -6 -12 17 -12 23 0 26 3 17
12 -17 17 -15 38 3 38 9 0 21 -11 27 -25 6 -14 15 -25 20 -25 5 0 4 10 -3 21
-8 15 -8 28 -1 43 16 36 -2 56 -50 56 -33 0 -39 -3 -30 -12z m61 -7 c19 -12 6
-41 -19 -41 -13 0 -20 7 -20 18 0 31 14 39 39 23z"/>
<path d="M225 12740 c0 -47 3 -60 15 -60 12 0 15 13 15 60 0 47 -3 60 -15 60
-12 0 -15 -13 -15 -60z"/>
<path d="M285 12740 c0 -47 3 -60 15 -60 12 0 15 10 12 43 l-3 42 28 -42 c15
-24 31 -43 36 -43 4 0 7 24 7 54 0 34 5 56 13 59 6 3 -1 6 -17 6 -24 1 -26 -1
-17 -13 7 -8 11 -30 9 -48 l-3 -33 -28 48 c-38 65 -52 61 -52 -13z"/>
<path d="M410 12783 c0 -13 3 -14 12 -5 23 23 30 12 26 -43 -2 -44 0 -55 12
-55 12 0 14 11 12 55 -3 44 -1 55 11 55 9 0 18 -6 20 -12 3 -8 6 -6 6 5 1 14
-8 17 -49 17 -40 0 -50 -3 -50 -17z"/>
<path d="M588 12788 c7 -7 12 -28 12 -48 0 -20 -5 -41 -12 -48 -9 -9 -5 -12
18 -11 16 0 23 3 17 6 -21 8 -15 43 7 43 11 0 20 5 20 10 0 6 -9 10 -20 10
-13 0 -20 7 -20 20 0 23 29 27 48 8 9 -9 12 -8 12 5 0 14 -9 17 -47 17 -37 0
-44 -3 -35 -12z"/>
<path d="M699 12753 c4 -56 15 -73 46 -73 31 0 42 17 46 73 3 37 1 47 -11 47
-12 0 -14 -11 -12 -50 4 -54 -14 -74 -43 -50 -18 15 -20 71 -3 88 9 9 8 12 -8
12 -17 0 -19 -6 -15 -47z"/>
<path d="M818 12793 c7 -3 12 -24 12 -53 0 -29 -5 -50 -12 -53 -7 -3 11 -6 40
-6 40 -1 52 2 52 14 0 12 -4 13 -19 4 -31 -20 -51 -4 -51 39 0 21 5 43 12 50
9 9 5 12 -17 11 -17 0 -24 -3 -17 -6z"/>
<path d="M925 12740 l0 -60 43 0 c34 0 42 3 41 18 0 10 -3 12 -6 5 -2 -7 -16
-13 -30 -13 -24 0 -25 2 -21 55 2 44 0 55 -12 55 -12 0 -15 -13 -15 -60z"/>
<path d="M1090 12781 c-11 -22 -1 -34 43 -50 30 -12 35 -26 12 -35 -18 -6 -45
2 -45 15 0 5 -4 9 -10 9 -5 0 -10 -8 -10 -18 0 -14 8 -18 43 -17 36 0 42 3 45
23 3 18 -4 26 -32 37 -20 9 -36 19 -36 24 0 17 29 20 44 6 19 -20 26 -19 26 3
0 27 -66 29 -80 3z"/>
<path d="M1195 12740 c0 -47 3 -60 15 -60 12 0 15 13 15 60 0 47 -3 60 -15 60
-12 0 -15 -13 -15 -60z"/>
<path d="M1250 12783 c0 -13 3 -14 12 -5 14 14 48 16 48 4 0 -5 -13 -26 -30
-48 -16 -21 -30 -42 -30 -46 0 -5 20 -8 45 -8 35 0 45 4 45 16 0 13 -3 14 -14
4 -8 -6 -25 -10 -36 -8 -21 3 -20 5 14 50 20 26 36 49 36 52 0 3 -20 6 -45 6
-36 0 -45 -4 -45 -17z"/>
<path d="M1358 12793 c7 -3 12 -24 12 -53 0 -29 -5 -50 -12 -53 -7 -3 11 -6
40 -6 40 -1 52 2 52 14 0 8 -4 15 -10 15 -5 0 -10 -5 -10 -11 0 -18 -45 -5
-48 14 -3 13 3 17 23 17 15 0 24 4 20 10 -3 6 -15 10 -26 10 -14 0 -19 6 -17
18 3 18 48 31 48 13 0 -6 5 -11 10 -11 6 0 10 7 10 15 0 12 -12 15 -52 14 -29
0 -47 -3 -40 -6z"/>
<path d="M1529 12779 c-36 -36 -6 -99 47 -99 25 0 54 34 54 62 0 24 -35 58
-60 58 -11 0 -29 -9 -41 -21z m62 1 c36 -20 17 -90 -25 -90 -12 0 -36 33 -36
50 0 17 24 50 36 50 3 0 14 -5 25 -10z"/>
<path d="M1645 12740 c0 -47 3 -60 15 -60 12 0 15 10 12 43 l-3 42 28 -42 c15
-24 31 -43 36 -43 4 0 7 24 7 54 0 34 5 56 13 59 6 3 -1 6 -17 6 -24 1 -26 -1
-17 -13 7 -8 11 -30 9 -48 l-3 -33 -28 48 c-38 65 -52 61 -52 -13z"/>
<path d="M3147 12766 c-57 -21 -103 -61 -128 -113 -22 -44 -24 -60 -24 -203 0
-182 13 -229 76 -283 51 -44 97 -57 203 -57 l86 0 0 -989 0 -989 -98 -4 c-216
-7 -281 -97 -269 -373 3 -82 10 -134 22 -163 21 -50 84 -108 134 -122 57 -16
2302 -13 2355 2 52 16 121 84 136 135 8 26 10 161 8 435 l-3 396 -30 44 c-20
28 -49 52 -84 71 -53 26 -59 27 -223 27 -190 0 -218 -7 -281 -68 -52 -51 -67
-107 -67 -259 l0 -123 -440 0 -440 0 2 323 3 322 470 5 470 5 47 28 c31 18 57
44 75 75 27 45 28 54 31 201 3 99 0 169 -8 196 -15 55 -60 109 -113 138 -41
22 -48 22 -509 25 l-468 3 0 329 0 330 443 -2 442 -3 5 -150 c5 -136 7 -154
30 -195 16 -28 43 -55 74 -75 49 -30 51 -30 213 -33 186 -4 237 6 293 61 70
67 70 68 70 503 l0 392 -28 53 c-20 39 -41 62 -77 84 l-48 30 -1156 2 c-948 2
-1163 0 -1194 -11z"/>
<path d="M10 12585 c-9 -11 -10 -19 -2 -27 8 -8 7 -16 -1 -28 -8 -14 -8 -22 2
-34 27 -32 92 -6 76 30 -4 10 -8 30 -9 44 -1 19 -7 26 -27 28 -14 2 -31 -4
-39 -13z m58 -12 c5 -17 -26 -29 -40 -15 -6 6 -7 15 -3 22 9 14 37 9 43 -7z
m0 -55 c3 -13 -3 -18 -21 -18 -29 0 -37 7 -30 27 8 19 47 12 51 -9z"/>
<path d="M130 12571 c0 -26 3 -30 27 -28 22 2 29 -3 31 -22 3 -21 1 -23 -27
-19 -37 5 -42 -9 -6 -18 15 -4 32 -1 40 6 29 24 11 70 -27 70 -10 0 -18 7 -18
16 0 12 7 15 25 12 14 -3 25 -1 25 3 0 5 -16 9 -35 9 -32 0 -35 -2 -35 -29z"/>
<path d="M245 12575 c30 -29 31 -35 5 -63 -25 -27 -25 -32 1 -32 11 0 17 4 14
10 -8 13 14 42 26 34 5 -3 9 -14 9 -25 0 -12 7 -19 20 -19 23 0 27 15 6 23 -8
3 -19 14 -25 25 -8 14 -5 24 15 45 24 26 24 27 4 27 -12 0 -19 -4 -16 -9 8
-12 -21 -34 -34 -26 -6 4 -9 13 -6 21 4 10 -2 14 -19 14 l-24 0 24 -25z"/>
<path d="M370 12585 c-11 -13 -10 -14 4 -9 13 5 16 -1 16 -35 0 -30 -4 -41
-15 -41 -8 0 -15 -4 -15 -10 0 -5 17 -10 38 -10 33 1 35 2 20 14 -13 9 -18 27
-18 60 0 48 -9 57 -30 31z"/>
<path d="M449 12583 c-12 -15 -12 -16 4 -10 14 5 17 0 17 -30 0 -22 -7 -41
-17 -49 -16 -12 -14 -13 20 -14 20 0 37 5 37 10 0 6 -4 10 -10 10 -5 0 -10 23
-10 50 0 53 -15 65 -41 33z"/>
<path d="M585 12540 c0 -47 3 -60 15 -60 12 0 15 13 15 60 0 47 -3 60 -15 60
-12 0 -15 -13 -15 -60z"/>
<path d="M645 12540 c0 -49 3 -60 17 -60 13 0 15 8 12 43 -4 37 -3 40 8 23 7
-10 23 -31 35 -45 l22 -26 1 57 c0 35 5 58 13 61 6 3 -1 6 -18 6 -20 0 -26 -2
-17 -8 8 -5 12 -23 10 -47 l-3 -39 -28 48 c-38 64 -52 61 -52 -13z"/>
<path d="M774 12575 c-34 -52 15 -112 71 -87 14 6 25 17 25 23 0 8 -4 8 -14 0
-8 -7 -27 -11 -43 -9 -22 2 -29 9 -31 31 -2 16 2 35 9 43 15 18 48 18 55 -1 8
-21 24 -19 24 3 0 15 -8 19 -40 20 -32 2 -43 -3 -56 -23z"/>
<path d="M889 12591 c10 -6 12 -23 9 -60 -5 -46 -3 -51 15 -51 16 0 18 3 9 12
-22 22 -13 38 19 38 28 0 31 -2 25 -25 -5 -20 -3 -25 11 -25 15 0 18 9 18 60
0 48 -3 60 -16 60 -12 0 -15 -7 -11 -25 4 -22 1 -25 -27 -25 -24 0 -31 4 -31
19 0 11 6 22 13 24 6 3 -1 6 -18 6 -21 1 -26 -2 -16 -8z"/>
<path d="M1075 12540 c0 -51 3 -60 18 -60 13 0 16 5 11 24 -5 21 -2 25 23 28
24 3 28 7 28 33 0 28 -3 30 -40 33 l-40 3 0 -61z m70 25 c0 -13 -8 -21 -22
-23 -19 -3 -23 1 -23 23 0 22 4 26 23 23 14 -2 22 -10 22 -23z"/>
<path d="M1195 12590 c3 -5 -5 -32 -18 -60 -23 -47 -23 -50 -5 -50 12 0 18 6
16 18 -2 12 5 18 25 20 22 3 27 -1 27 -17 0 -12 7 -21 15 -21 18 0 18 4 5 28
-5 9 -16 34 -24 55 -9 21 -22 37 -31 37 -9 0 -13 -4 -10 -10z m23 -49 c-15 -5
-19 4 -11 24 6 18 7 18 13 -1 4 -10 3 -21 -2 -23z"/>
<path d="M1288 12589 c15 -16 16 -81 0 -97 -9 -9 -6 -12 17 -12 23 0 26 3 17
12 -20 20 -14 36 16 40 23 3 27 8 27 33 0 28 -2 30 -45 33 -36 3 -43 1 -32 -9z
m67 -24 c0 -13 -8 -21 -22 -23 -19 -3 -23 1 -23 23 0 22 4 26 23 23 14 -2 22
-10 22 -23z"/>
<path d="M1388 12593 c16 -6 16 -85 0 -101 -9 -9 -2 -12 35 -12 32 0 47 4 47
13 0 9 -10 12 -30 9 -23 -3 -30 0 -30 12 0 9 8 16 20 16 11 0 20 5 20 10 0 6
-9 10 -20 10 -13 0 -20 7 -20 20 0 14 7 20 24 20 13 0 27 -6 29 -12 3 -8 6 -6
6 5 1 14 -7 17 -46 16 -27 0 -42 -3 -35 -6z"/>
<path d="M1495 12540 c0 -51 3 -60 18 -60 14 0 16 5 11 25 -4 18 -2 25 8 25 8
0 20 -11 26 -25 6 -14 16 -25 22 -25 15 0 12 11 -7 32 -14 15 -15 21 -4 27 7
5 11 19 9 32 -2 20 -9 24 -43 27 l-40 3 0 -61z m72 34 c6 -16 -12 -34 -34 -34
-7 0 -13 11 -13 25 0 18 5 25 20 25 11 0 23 -7 27 -16z"/>
<path d="M7946 11314 c-9 -8 -16 -20 -16 -25 0 -15 22 -10 36 9 10 14 15 15
26 4 11 -11 7 -19 -24 -44 -53 -42 -50 -58 12 -58 37 0 50 4 50 14 0 19 -17
29 -25 16 -3 -5 -16 -10 -28 -9 -21 0 -21 1 -3 12 11 7 28 20 38 30 17 16 18
16 18 -1 0 -52 65 -82 93 -42 l14 20 18 -20 c20 -22 55 -26 73 -8 7 7 12 29
12 49 0 66 -51 91 -88 44 -18 -23 -20 -24 -25 -5 -8 30 -57 38 -77 12 -17 -20
-17 -20 -33 -1 -20 23 -50 25 -71 3z m164 -49 c0 -26 -24 -50 -40 -40 -14 9
-13 72 3 78 18 7 37 -12 37 -38z m98 33 c17 -17 15 -53 -4 -69 -14 -11 -18
-10 -30 6 -17 23 -17 30 -4 56 12 22 21 24 38 7z"/>
<path d="M8300 11321 c0 -6 5 -13 10 -16 6 -3 10 -21 10 -40 0 -19 -4 -37 -10
-40 -20 -12 -9 -25 20 -25 17 0 30 5 30 10 0 6 -4 10 -10 10 -5 0 -10 7 -10
15 0 8 9 15 20 15 11 0 20 4 20 9 0 5 -9 11 -20 14 -11 3 -20 12 -20 21 0 18
25 22 35 6 3 -5 17 -10 31 -10 13 0 24 5 24 10 0 6 5 10 10 10 6 0 10 -20 10
-45 0 -25 -5 -45 -11 -45 -5 0 -7 -4 -4 -10 8 -13 55 -13 55 -1 0 6 -4 13 -10
16 -5 3 -10 21 -10 40 0 19 5 37 10 40 6 3 10 1 10 -4 0 -6 7 -11 16 -11 9 0
14 7 12 18 -3 15 -17 17 -111 19 -61 2 -107 -1 -107 -6z"/>
<path d="M8520 11210 c0 -5 5 -10 10 -10 6 0 10 5 10 10 0 6 -4 10 -10 10 -5
0 -10 -4 -10 -10z"/>
<path d="M7950 11150 c0 -6 100 -10 280 -10 180 0 280 4 280 10 0 6 -100 10
-280 10 -180 0 -280 -4 -280 -10z"/>
<path d="M8052 11118 c-7 -7 -12 -29 -12 -49 0 -63 53 -92 84 -47 13 19 14 25
2 42 -7 11 -24 23 -37 26 -17 4 -20 8 -11 14 7 4 19 2 28 -5 19 -16 30 -4 14
16 -15 18 -51 20 -68 3z m55 -64 c8 -22 -18 -37 -36 -20 -7 8 -10 19 -7 25 10
16 36 13 43 -5z"/>
<path d="M8158 11119 c-22 -12 -24 -33 -3 -25 12 4 15 -3 15 -30 0 -22 -6 -37
-15 -40 -28 -11 -15 -24 25 -24 40 0 53 13 25 24 -11 4 -15 20 -15 56 0 52 -3
56 -32 39z"/>
<path d="M8288 11079 c3 -37 1 -54 -9 -60 -11 -6 -10 -9 4 -15 9 -3 24 -3 33
0 13 5 14 9 4 21 -6 8 -10 20 -8 27 3 8 11 1 20 -16 l15 -30 17 30 17 29 -5
-32 c-5 -29 -3 -33 17 -33 20 0 22 4 22 65 0 56 -3 65 -18 65 -11 0 -24 -14
-34 -37 l-15 -38 -15 38 c-9 23 -22 37 -33 37 -15 0 -16 -7 -12 -51z"/>
<path d="M236 11064 c-28 -28 -14 -54 15 -28 10 9 23 13 30 9 8 -5 -1 -18 -26
-40 -51 -42 -44 -65 20 -65 34 0 45 4 45 16 0 14 2 14 22 0 30 -21 44 -20 68
4 24 24 26 67 4 98 -17 25 -56 29 -74 7 -11 -13 -15 -13 -33 0 -28 19 -52 19
-71 -1z m160 -39 c8 -32 -13 -60 -32 -44 -15 12 -19 51 -7 62 14 15 33 6 39
-18z m-92 -40 c-18 -14 -44 -20 -44 -10 0 7 54 34 59 29 3 -2 -4 -11 -15 -19z"/>
<path d="M130 10905 c0 -13 26 -15 170 -15 144 0 170 2 170 15 0 13 -26 15
-170 15 -144 0 -170 -2 -170 -15z"/>
<path d="M178 10849 c-10 -5 -18 -19 -18 -29 0 -24 8 -25 32 -3 13 11 22 13
29 6 7 -7 -1 -19 -26 -37 -19 -15 -35 -36 -35 -47 0 -16 7 -19 50 -19 40 0 50
3 50 17 0 15 1 15 18 0 25 -22 48 -21 72 3 11 11 20 16 20 10 0 -16 40 -32 65
-26 49 12 52 101 4 126 -18 10 -26 8 -49 -8 -27 -20 -27 -20 -43 -1 -20 23
-36 24 -65 3 -20 -14 -24 -14 -44 0 -26 18 -36 19 -60 5z m152 -39 c8 -14 8
-26 0 -41 -14 -25 -34 -20 -38 10 -7 47 18 68 38 31z m105 -21 c0 -24 -5 -34
-15 -34 -16 0 -25 37 -16 62 10 26 31 8 31 -28z m-176 -24 c-2 -2 -18 -6 -34
-10 l-30 -7 30 21 c17 12 31 16 34 10 1 -6 1 -12 0 -14z"/>
<path d="M9170 10504 c-136 -96 -137 -99 -103 -152 16 -24 35 -42 46 -42 10 0
47 21 83 46 l64 46 0 -281 0 -281 -87 0 c-49 0 -94 -4 -101 -9 -9 -5 -12 -25
-10 -62 l3 -54 260 0 260 0 3 48 c4 69 -6 77 -99 77 l-79 0 0 358 c0 265 -3
361 -12 370 -7 7 -37 12 -67 12 -53 -1 -61 -4 -161 -76z"/>
<path d="M5513 8966 c-45 -20 -53 -43 -53 -149 0 -88 2 -95 26 -118 20 -19 40
-25 92 -29 l67 -5 3 -532 2 -533 -55 0 c-61 0 -108 -19 -125 -49 -5 -11 -10
-61 -10 -111 0 -88 1 -93 29 -121 l29 -29 312 0 c349 0 359 2 380 66 7 20 10
69 8 110 -3 65 -7 77 -31 101 -25 26 -35 28 -117 31 l-90 4 0 133 0 133 188 5
c210 6 265 17 377 75 132 69 218 186 250 337 65 311 -99 587 -400 671 -85 24
-832 32 -882 10z m831 -335 c86 -42 117 -91 124 -195 6 -94 -11 -151 -57 -197
-50 -51 -92 -61 -273 -66 l-158 -5 0 252 0 252 149 -4 c143 -4 151 -5 215 -37z"/>
<path d="M2137 8929 c-32 -18 -47 -65 -47 -141 0 -40 6 -84 13 -98 17 -34 72
-60 130 -60 l47 0 0 -529 0 -528 -60 -6 c-105 -9 -130 -39 -130 -158 0 -75 17
-121 49 -139 27 -14 675 -14 703 1 47 25 66 169 30 239 -22 45 -62 59 -169 59
l-83 1 0 184 0 185 236 3 236 3 29 33 c27 30 29 38 29 113 0 90 -14 129 -55
147 -18 8 -98 12 -250 12 l-225 0 0 190 0 190 230 0 230 0 0 -86 c0 -81 1 -87
29 -115 29 -28 32 -29 129 -29 93 0 101 2 124 25 14 14 28 39 32 56 10 51 7
351 -4 390 -20 72 8 69 -647 69 -381 -1 -594 -4 -606 -11z"/>
<path d="M9203 8314 c-89 -32 -162 -126 -179 -231 -8 -54 12 -73 76 -73 56 0
80 18 80 58 0 40 36 91 75 108 44 18 126 18 169 0 48 -20 76 -64 76 -120 0
-69 -40 -107 -201 -191 -219 -115 -283 -192 -277 -338 l3 -72 309 -3 c224 -2
312 1 323 9 10 9 13 36 11 113 l-3 101 -64 3 c-71 3 -81 -3 -81 -55 l0 -33
-170 0 c-160 0 -170 1 -161 18 20 37 81 82 201 146 69 38 143 83 165 101 49
40 91 114 100 177 17 111 -61 236 -171 278 -67 25 -216 27 -281 4z"/>
<path d="M7989 8293 c-11 -13 -11 -17 -1 -20 14 -5 17 -63 2 -63 -5 0 -10 -7
-10 -15 0 -10 11 -15 35 -15 24 0 35 5 35 15 0 8 -4 15 -10 15 -5 0 -10 23
-10 50 0 53 -15 65 -41 33z"/>
<path d="M8070 8291 c-16 -30 -12 -76 8 -94 26 -24 47 -21 70 8 19 24 21 25
27 6 14 -44 79 -33 91 16 15 60 -55 111 -88 64 -14 -20 -14 -20 -31 -1 -22 26
-63 26 -77 1z m60 -21 c16 -30 3 -62 -23 -58 -25 3 -35 41 -17 64 17 19 27 18
40 -6z m108 -23 c3 -32 0 -37 -18 -37 -25 0 -34 21 -26 56 10 40 40 27 44 -19z"/>
<path d="M8338 8265 c2 -26 0 -51 -7 -58 -14 -17 -4 -27 26 -27 24 0 33 25 11
32 -18 6 0 28 23 28 11 0 17 5 14 10 -3 6 -15 10 -26 10 -10 0 -19 5 -19 10 0
15 31 25 39 13 8 -12 51 -14 51 -2 0 5 5 9 11 9 8 0 10 -18 7 -55 -4 -51 -3
-55 17 -55 20 0 21 4 17 55 -3 37 -1 55 7 55 6 0 11 -4 11 -10 0 -5 5 -10 10
-10 6 0 10 9 10 20 0 18 -7 19 -104 19 l-103 0 5 -44z"/>
<path d="M236 8274 c-9 -8 -16 -19 -16 -24 0 -17 18 -20 30 -5 13 16 40 21 40
8 0 -5 -17 -22 -37 -39 -47 -40 -41 -64 17 -64 27 0 43 5 46 15 5 13 8 13 27
0 29 -20 43 -19 67 5 56 56 -12 158 -70 105 -15 -14 -18 -14 -30 0 -16 20 -54
19 -74 -1z m162 -42 c5 -32 -16 -56 -34 -41 -15 12 -19 51 -7 63 14 13 38 0
41 -22z m-94 -37 c-18 -14 -44 -20 -44 -10 0 7 54 34 59 29 3 -2 -4 -11 -15
-19z"/>
<path d="M7970 8130 c0 -6 102 -10 285 -10 183 0 285 4 285 10 0 6 -102 10
-285 10 -183 0 -285 -4 -285 -10z"/>
<path d="M160 8115 c0 -13 21 -15 141 -15 108 0 140 3 137 13 -3 9 -43 13
-141 15 -117 2 -137 0 -137 -13z"/>
<path d="M7990 8085 c-16 -20 -5 -32 14 -16 15 13 36 7 36 -10 0 -5 -7 -9 -15
-9 -20 0 -19 -10 3 -26 24 -18 3 -40 -26 -25 -23 12 -36 3 -21 -16 17 -19 57
-16 76 7 17 19 17 19 30 0 17 -24 56 -26 74 -4 7 9 13 31 13 49 0 40 -19 65
-49 65 -26 0 -43 -17 -55 -57 -8 -27 -8 -27 -9 8 -1 48 -43 67 -71 34z m148
-17 c16 -16 15 -53 -3 -68 -21 -17 -35 -4 -35 34 0 45 14 58 38 34z"/>
<path d="M8210 8064 c0 -34 2 -36 25 -30 18 5 27 2 32 -9 8 -24 -11 -39 -34
-27 -20 11 -63 -11 -48 -25 4 -5 10 -2 12 4 3 10 10 10 25 2 26 -14 65 -4 73
20 8 27 -4 50 -31 57 -13 3 -24 10 -24 15 0 5 11 7 25 3 19 -5 25 -2 25 10 0
12 -10 16 -40 16 -39 0 -40 -1 -40 -36z"/>
<path d="M8355 8090 c-3 -5 -1 -10 4 -10 16 0 14 -87 -1 -93 -9 -3 -7 -7 5
-12 9 -4 24 -4 33 -1 13 5 14 9 4 21 -6 8 -10 20 -7 27 3 8 9 2 16 -14 6 -16
13 -28 15 -28 3 0 13 12 21 28 l16 27 -5 -32 c-5 -30 -3 -33 19 -33 25 0 33
14 15 25 -5 3 -10 21 -10 40 0 19 5 37 10 40 17 11 11 25 -11 25 -14 0 -25
-12 -36 -37 l-16 -38 -16 37 c-15 37 -42 50 -56 28z"/>
<path d="M172 8058 c-16 -16 -15 -28 3 -28 10 0 15 -10 15 -30 0 -20 -5 -30
-15 -30 -8 0 -15 -7 -15 -15 0 -11 11 -15 40 -15 29 0 40 4 40 15 0 8 -4 15
-10 15 -5 0 -10 23 -10 50 0 41 -3 50 -18 50 -10 0 -23 -5 -30 -12z"/>
<path d="M257 8052 c-52 -58 24 -150 78 -95 16 16 18 16 27 0 23 -42 98 -6 98
48 0 54 -75 90 -98 48 -9 -16 -11 -16 -27 0 -22 22 -58 22 -78 -1z m58 -47 c0
-23 -4 -30 -20 -30 -21 0 -31 25 -21 51 11 28 41 12 41 -21z m111 9 c8 -29 -7
-49 -30 -41 -16 6 -22 48 -9 60 14 15 33 6 39 -19z"/>
<path d="M1484 6830 c-47 -19 -54 -45 -54 -192 0 -79 5 -147 11 -161 15 -34
49 -47 120 -47 54 0 64 3 90 29 25 26 29 37 29 85 l0 56 65 0 65 0 0 -335 0
-335 -38 0 c-60 0 -82 -30 -82 -114 0 -58 3 -70 25 -91 24 -25 25 -25 218 -25
181 0 196 1 221 21 24 19 26 27 26 93 0 59 -4 76 -20 94 -18 19 -51 28 -82 23
-5 0 -8 150 -8 334 l0 335 65 0 65 0 0 -60 c0 -51 4 -65 25 -85 21 -22 33 -25
94 -25 59 0 74 4 98 24 28 24 28 26 31 153 2 77 -1 143 -8 166 -20 67 -22 67
-507 66 -235 0 -438 -4 -449 -9z"/>
<path d="M4241 6824 c-135 -36 -279 -152 -340 -272 -49 -97 -64 -178 -58 -312
7 -165 52 -280 150 -382 103 -106 217 -158 367 -166 174 -8 304 40 420 156
112 113 160 238 160 422 0 187 -41 293 -159 411 -117 116 -222 159 -391 158
-52 0 -119 -7 -149 -15z m267 -248 c53 -28 112 -86 140 -140 24 -47 27 -61 27
-166 0 -106 -2 -119 -29 -173 -31 -64 -100 -126 -163 -148 -51 -18 -150 -16
-195 4 -56 24 -133 101 -157 158 -44 100 -37 257 15 345 29 51 73 90 139 121
42 20 62 23 120 20 39 -2 85 -11 103 -21z"/>
<path d="M6454 6833 c-48 -9 -59 -37 -62 -160 -6 -185 5 -203 126 -203 69 0
81 3 100 23 15 16 22 36 22 65 l0 42 141 0 c77 0 139 -4 137 -8 -1 -5 -119
-167 -262 -361 -226 -308 -259 -358 -264 -396 -6 -56 3 -89 30 -115 21 -19 34
-20 419 -20 376 0 398 1 420 19 23 18 24 26 27 155 l4 136 -30 30 c-28 27 -37
30 -96 30 -83 0 -116 -24 -125 -91 l-6 -44 -137 -3 c-76 -1 -138 0 -138 3 0 3
113 160 252 348 138 188 258 353 265 367 7 14 13 48 13 77 0 40 -5 58 -24 80
l-24 28 -384 1 c-210 1 -393 0 -404 -3z"/>
<path d="M9240 6587 c-100 -28 -160 -90 -180 -184 -16 -75 -4 -93 63 -93 56 0
77 12 77 43 0 28 30 74 58 89 36 19 133 16 165 -5 15 -9 34 -31 43 -49 13 -26
14 -38 5 -70 -16 -51 -55 -74 -142 -83 -52 -5 -72 -12 -79 -25 -15 -27 -12
-62 6 -88 13 -19 24 -22 80 -22 110 0 164 -37 164 -113 0 -86 -63 -137 -170
-137 -67 0 -123 25 -169 74 -43 45 -68 45 -109 3 -45 -46 -41 -67 23 -125 81
-74 143 -95 270 -90 148 6 235 52 288 153 46 88 17 236 -56 287 -18 12 -34 23
-36 25 -2 1 8 13 24 25 61 48 83 164 46 243 -24 51 -84 109 -136 131 -52 21
-177 27 -235 11z"/>
<path d="M8020 6460 c0 -21 15 -27 25 -10 7 11 45 14 45 3 0 -3 -7 -14 -15
-23 -20 -22 -31 -80 -16 -80 6 0 14 8 17 18 3 9 14 35 24 56 10 22 17 43 14
48 -3 4 -25 8 -50 8 -37 0 -44 -3 -44 -20z"/>
<path d="M8137 6462 c-21 -23 -22 -76 -1 -96 21 -22 61 -20 74 3 36 69 -25
146 -73 93z m63 -47 c0 -12 -7 -29 -16 -36 -14 -11 -18 -10 -30 6 -18 25 -18
40 2 60 20 20 44 4 44 -30z"/>
<path d="M8280 6471 c0 -4 3 -11 7 -14 3 -4 6 -23 6 -42 0 -19 -3 -38 -6 -42
-15 -14 -6 -23 23 -23 17 0 30 5 30 10 0 6 -4 10 -10 10 -5 0 -10 7 -10 15 0
9 9 15 21 15 12 0 19 5 17 13 -3 6 -11 12 -19 12 -7 0 -15 8 -17 18 -4 18 22
24 33 7 8 -13 55 -13 55 1 0 5 5 7 10 4 6 -3 10 -24 10 -46 0 -21 -4 -39 -10
-39 -5 0 -10 -4 -10 -10 0 -5 11 -10 24 -10 14 0 28 5 31 10 3 6 1 10 -4 10
-14 0 -14 77 -1 85 6 3 10 1 10 -4 0 -6 7 -11 16 -11 9 0 14 7 12 18 -3 15
-17 17 -111 19 -59 1 -107 -1 -107 -6z"/>
<path d="M236 6424 c-19 -18 -20 -30 -5 -39 6 -4 16 1 24 11 12 16 16 17 27 5
11 -11 11 -14 0 -18 -31 -11 -65 -50 -59 -66 9 -23 97 -24 97 -1 0 14 2 14 22
0 30 -21 44 -20 68 4 37 37 13 120 -35 120 -8 0 -23 -8 -32 -17 -17 -17 -19
-17 -35 0 -22 21 -52 22 -72 1z m159 -34 c8 -26 -3 -60 -20 -60 -8 0 -17 9
-20 20 -8 26 3 60 20 60 8 0 17 -9 20 -20z m-75 -36 c0 -8 -4 -13 -9 -9 -5 3
-12 1 -16 -5 -3 -5 -14 -10 -23 -10 -11 0 -7 6 13 19 37 24 35 24 35 5z"/>
<path d="M8500 6360 c0 -5 5 -10 10 -10 6 0 10 5 10 10 0 6 -4 10 -10 10 -5 0
-10 -4 -10 -10z"/>
<path d="M7970 6310 c0 -6 102 -10 285 -10 183 0 285 4 285 10 0 6 -102 10
-285 10 -183 0 -285 -4 -285 -10z"/>
<path d="M160 6255 c0 -13 22 -15 140 -15 118 0 140 2 140 15 0 13 -22 15
-140 15 -118 0 -140 -2 -140 -15z"/>
<path d="M8022 6258 c-13 -13 -16 -38 -5 -38 3 0 14 7 24 16 17 15 39 12 39
-6 0 -5 -16 -18 -35 -30 -20 -12 -35 -30 -35 -40 0 -17 9 -19 97 -19 53 0 102
4 109 10 8 7 14 7 19 -1 9 -14 50 -13 63 3 13 15 12 88 -1 105 -18 23 -77 8
-77 -20 0 -13 28 -9 32 4 2 6 10 8 16 4 17 -10 15 -26 -3 -26 -22 0 -18 -18 5
-25 11 -3 20 -10 20 -15 0 -15 -32 -21 -47 -8 -11 9 -16 9 -22 -1 -5 -7 -19
-11 -32 -9 -21 3 -24 9 -27 56 -3 56 -4 57 -33 42 -23 -13 -25 -30 -4 -30 10
0 15 -11 15 -35 0 -36 -15 -46 -37 -24 -8 8 -13 8 -17 0 -4 -6 -17 -11 -29
-11 -20 0 -19 3 11 26 46 36 39 84 -13 84 -12 0 -26 -5 -33 -12z"/>
<path d="M8375 6205 c0 -61 2 -65 22 -65 20 0 22 4 18 33 l-5 32 11 -27 c13
-34 22 -35 38 -5 11 21 11 21 6 -5 -5 -24 -2 -28 17 -28 22 0 23 4 23 65 0 54
-3 65 -17 65 -10 0 -22 -14 -29 -35 -7 -19 -16 -35 -19 -35 -3 0 -12 16 -19
35 -7 21 -19 35 -29 35 -14 0 -17 -11 -17 -65z"/>
<path d="M200 6210 c0 -18 4 -20 35 -14 l35 6 -22 -39 c-12 -22 -19 -47 -15
-56 10 -25 24 -20 30 11 3 15 13 36 21 47 15 19 15 19 16 -7 0 -30 31 -68 55
-68 24 0 55 38 55 68 0 60 -52 92 -92 55 -17 -15 -18 -15 -18 0 0 14 -10 17
-50 17 -44 0 -50 -3 -50 -20z m176 -35 c4 -15 1 -32 -7 -41 -19 -23 -44 5 -35
40 8 33 34 34 42 1z"/>
<path d="M9427 5249 c-9 -6 -105 -118 -212 -250 -201 -248 -217 -276 -196
-332 l11 -27 190 0 190 0 0 -65 0 -64 -67 -3 -68 -3 0 -60 0 -60 189 -3 c130
-2 193 1 202 9 17 14 18 93 2 107 -7 6 -33 12 -58 14 l-45 4 -3 62 -3 62 44 0
c54 0 67 13 67 65 0 52 -13 65 -67 65 l-43 0 0 235 c0 221 -1 235 -19 245 -25
13 -91 13 -114 -1z m-20 -476 c-3 -2 -50 -2 -106 -1 l-101 3 103 127 102 127
3 -126 c1 -69 1 -128 -1 -130z"/>
<path d="M1550 5169 c-34 -14 -40 -26 -40 -81 0 -55 24 -88 65 -88 l25 0 0
-235 0 -235 -25 0 c-41 0 -65 -33 -65 -89 0 -53 15 -77 53 -86 12 -3 149 -5
304 -3 246 3 284 5 299 19 13 14 16 37 15 125 -2 130 -10 144 -80 144 -64 0
-91 -21 -91 -71 l0 -39 -110 0 -110 0 0 235 c0 219 1 235 18 235 10 0 28 7 40
16 18 13 22 25 22 73 0 42 -5 62 -17 72 -20 17 -266 24 -303 8z"/>
<path d="M3235 5173 c-37 -10 -45 -24 -45 -84 0 -48 4 -60 22 -73 12 -9 33
-16 45 -16 l23 0 0 -235 0 -235 -23 0 c-12 0 -33 -7 -45 -16 -20 -14 -23 -23
-20 -77 4 -85 12 -88 201 -85 172 3 177 6 177 94 0 61 -21 84 -77 84 -33 0
-33 0 -33 50 l0 50 85 0 c186 0 291 87 302 250 9 123 -52 222 -166 273 -40 17
-70 20 -236 23 -104 2 -199 1 -210 -3z m401 -206 c31 -36 33 -104 5 -138 -17
-21 -30 -24 -100 -27 l-81 -4 0 102 0 102 76 -4 c69 -3 79 -6 100 -31z"/>
<path d="M4905 5173 c-32 -8 -45 -33 -45 -89 0 -43 4 -56 22 -68 12 -9 33 -16
45 -16 l23 0 0 -235 0 -235 -23 0 c-12 0 -33 -7 -45 -16 -20 -14 -23 -23 -20
-77 3 -54 6 -63 28 -74 18 -9 100 -13 303 -13 l278 0 24 25 c23 22 25 32 25
118 0 80 -3 98 -21 121 -17 21 -29 26 -68 26 -64 0 -91 -20 -91 -71 l0 -39
-105 0 -106 0 3 73 3 72 115 3 c137 3 150 10 150 84 0 79 -16 88 -155 88
l-115 0 0 75 0 75 105 0 105 0 0 -38 c0 -53 23 -72 86 -72 27 0 54 4 60 8 25
16 34 55 34 140 0 73 -3 94 -19 113 l-19 24 -279 2 c-153 0 -287 -1 -298 -4z"/>
<path d="M6630 5169 c-33 -14 -40 -26 -40 -81 0 -55 24 -88 65 -88 l25 0 0
-235 0 -235 -25 0 c-41 0 -65 -33 -65 -89 0 -54 15 -77 56 -87 49 -12 376 3
429 20 182 57 281 236 254 460 -23 189 -152 313 -349 336 -108 12 -317 12
-350 -1z m372 -179 c50 -14 97 -55 119 -105 26 -56 26 -194 0 -251 -32 -70
-110 -108 -206 -102 l-50 3 -3 233 -2 232 52 0 c29 0 70 -5 90 -10z"/>
<path d="M8060 4945 c0 -32 2 -35 30 -35 20 0 30 -5 30 -15 0 -20 -27 -30 -44
-16 -17 14 -29 2 -15 -16 21 -24 79 -13 80 16 0 12 3 11 16 -6 20 -29 68 -31
83 -4 24 47 0 111 -42 111 -19 0 -48 -32 -48 -53 0 -13 -4 -15 -17 -8 -10 5
-27 12 -37 16 -14 4 -16 9 -8 17 8 8 15 8 26 -1 10 -8 16 -9 21 -1 11 18 -5
30 -41 30 -32 0 -34 -2 -34 -35z m166 -20 c6 -24 -9 -55 -27 -55 -14 0 -30 40
-24 60 9 29 43 25 51 -5z"/>
<path d="M8315 4915 c0 -64 0 -65 28 -65 15 0 27 5 27 10 0 6 -4 10 -10 10 -5
0 -10 7 -10 15 0 8 9 15 20 15 11 0 20 5 20 10 0 6 -9 10 -20 10 -13 0 -20 7
-20 20 0 11 7 20 15 20 8 0 15 -4 15 -10 0 -5 14 -10 30 -10 17 0 30 5 30 11
0 5 5 7 10 4 6 -3 10 -24 10 -46 0 -21 -4 -39 -10 -39 -5 0 -10 -4 -10 -10 0
-5 11 -10 24 -10 22 0 23 3 18 49 -2 30 0 51 7 55 6 4 11 2 11 -3 0 -6 7 -11
16 -11 9 0 14 7 12 18 -3 15 -17 17 -108 19 l-105 2 0 -64z"/>
<path d="M216 4924 c-31 -30 -14 -45 24 -22 37 23 34 -4 -4 -36 -21 -18 -37
-38 -34 -46 5 -16 90 -18 96 -2 2 7 12 6 29 -3 44 -23 83 5 83 60 0 54 -53 83
-90 50 -15 -14 -18 -14 -30 0 -16 20 -54 19 -74 -1z m162 -45 c2 -14 -3 -31
-11 -37 -21 -18 -41 10 -33 44 9 33 40 29 44 -7z m-94 -34 c-18 -14 -44 -20
-44 -10 0 7 54 34 59 29 3 -2 -4 -11 -15 -19z"/>
<path d="M8530 4860 c0 -5 5 -10 10 -10 6 0 10 5 10 10 0 6 -4 10 -10 10 -5 0
-10 -4 -10 -10z"/>
<path d="M7995 4810 c4 -6 110 -10 286 -10 179 0 279 4 279 10 0 6 -102 10
-286 10 -187 0 -283 -3 -279 -10z"/>
<path d="M160 4755 c0 -13 21 -15 141 -15 108 0 140 3 137 13 -3 9 -43 13
-141 15 -117 2 -137 0 -137 -13z"/>
<path d="M8058 4759 c-22 -12 -23 -29 -3 -29 10 0 15 -10 15 -30 0 -18 -6 -33
-15 -36 -28 -11 -15 -24 25 -24 24 0 40 5 40 12 0 9 3 9 12 0 33 -33 99 10 77
49 -5 11 -21 22 -34 25 -14 3 -25 10 -25 15 0 12 27 11 35 -1 8 -13 25 -3 25
16 0 10 -12 14 -40 14 -39 0 -40 -1 -40 -36 0 -28 4 -35 18 -33 32 3 42 -1 42
-16 0 -21 -27 -30 -44 -16 -10 8 -16 9 -21 1 -3 -5 -13 -10 -21 -10 -10 0 -14
14 -14 55 0 57 -3 61 -32 44z"/>
<path d="M8255 4754 c-11 -12 -13 -20 -6 -27 8 -8 15 -5 24 8 13 17 37 14 37
-4 0 -5 -20 -24 -45 -42 -24 -19 -45 -37 -45 -41 0 -5 27 -8 60 -8 43 0 60 4
60 13 0 22 -11 27 -31 14 -10 -6 -22 -7 -26 -3 -4 5 -2 11 6 14 18 6 51 39 51
51 0 16 -31 41 -50 41 -10 0 -26 -7 -35 -16z"/>
<path d="M8395 4760 c-3 -5 -1 -10 6 -10 8 0 10 -17 7 -55 -4 -52 -3 -55 19
-55 25 0 29 10 12 27 -6 6 -9 17 -6 25 3 8 9 2 16 -15 12 -30 27 -28 42 7 8
17 9 15 5 -11 -5 -29 -3 -33 17 -33 20 0 22 4 22 65 0 55 -3 65 -17 65 -11 0
-24 -15 -34 -37 l-17 -38 -15 38 c-14 36 -43 50 -57 27z"/>
<path d="M217 4723 c-4 -3 -7 -21 -7 -40 0 -30 3 -33 30 -33 21 0 30 -5 30
-16 0 -13 -7 -15 -35 -10 -36 7 -44 -1 -23 -22 17 -17 63 -15 78 3 12 14 15
14 30 0 38 -34 90 -2 90 55 0 55 -55 85 -89 51 -12 -12 -21 -28 -21 -37 0 -8
-4 -13 -8 -10 -5 3 -7 19 -4 36 4 28 3 30 -30 30 -19 0 -38 -3 -41 -7z m48
-33 c3 -5 -1 -10 -9 -10 -9 0 -16 5 -16 10 0 6 4 10 9 10 6 0 13 -4 16 -10z
m111 -45 c-5 -18 -12 -25 -24 -23 -21 4 -28 44 -11 64 19 23 44 -6 35 -41z"/>
<path d="M9066 4054 c-14 -13 -16 -47 -16 -219 0 -251 1 -252 106 -220 27 8
83 18 124 21 66 5 81 3 119 -18 56 -29 79 -61 87 -120 5 -36 2 -56 -15 -90
-25 -53 -65 -78 -134 -85 -76 -8 -131 11 -187 63 -26 24 -53 44 -60 44 -22 0
-90 -61 -90 -81 0 -32 68 -97 138 -131 64 -31 72 -33 177 -32 119 1 148 9 220
61 120 88 140 303 39 421 -43 51 -88 75 -168 92 -55 11 -154 8 -192 -7 -11 -4
-14 11 -14 86 l0 91 120 0 120 0 0 -34 c0 -46 18 -58 87 -54 l58 3 3 100 c2
85 0 102 -15 112 -12 10 -79 13 -254 13 -203 0 -240 -2 -253 -16z"/>
<path d="M1399 3869 c-15 -15 -19 -30 -17 -62 3 -36 7 -44 35 -57 l33 -15 0
-187 c0 -161 -2 -188 -15 -188 -29 0 -55 -38 -55 -79 0 -62 21 -71 166 -71
140 0 154 7 154 78 0 45 -25 72 -67 72 -20 0 -23 5 -23 40 l0 40 73 0 c87 0
161 30 200 81 73 97 52 249 -44 318 -54 40 -115 51 -279 51 -128 0 -142 -2
-161 -21z m345 -150 c20 -16 26 -29 26 -60 0 -59 -26 -79 -100 -79 l-60 0 0
80 0 80 54 0 c39 0 60 -6 80 -21z"/>
<path d="M2760 3870 c-39 -39 -14 -130 35 -130 12 0 15 -32 17 -190 3 -175 2
-190 -14 -190 -30 0 -58 -37 -58 -75 0 -22 8 -43 20 -55 19 -19 33 -20 254
-20 200 0 237 2 250 16 12 12 16 37 16 104 0 102 -10 120 -66 120 -50 0 -72
-15 -80 -55 l-6 -35 -79 0 -79 0 0 60 0 60 100 0 c111 0 120 5 120 73 0 55
-22 67 -128 67 l-92 0 0 60 0 60 85 0 85 0 0 -35 c0 -39 20 -55 70 -55 64 0
70 10 70 115 0 72 -4 97 -16 109 -13 14 -50 16 -250 16 -221 0 -235 -1 -254
-20z"/>
<path d="M4238 3875 c-91 -33 -160 -103 -194 -195 -21 -59 -22 -200 0 -258 22
-60 72 -127 118 -157 127 -84 307 -72 416 29 77 71 84 123 22 159 -41 25 -55
21 -97 -24 -144 -157 -364 -30 -313 181 12 50 56 105 98 121 76 29 192 -18
192 -78 0 -34 41 -57 92 -50 22 3 45 11 49 19 5 7 9 66 9 130 0 106 -2 118
-19 128 -28 14 -83 12 -107 -4 -18 -13 -26 -13 -60 -1 -50 18 -158 18 -206 0z"/>
<path d="M5392 3874 c-17 -12 -22 -25 -22 -59 0 -47 19 -75 51 -75 18 0 19 -9
19 -187 l0 -188 -33 -15 c-28 -13 -32 -20 -35 -61 -5 -74 6 -79 159 -79 116 0
131 2 149 20 45 45 13 130 -50 130 l-30 0 0 60 0 60 90 0 c100 0 110 7 110 74
0 55 -19 66 -116 66 l-84 0 0 60 0 60 75 0 75 0 0 -35 c0 -39 20 -55 70 -55
64 0 70 10 70 120 0 88 -2 100 -19 110 -12 6 -107 10 -238 10 -182 0 -222 -3
-241 -16z"/>
<path d="M6722 3874 c-19 -13 -23 -23 -20 -62 3 -42 7 -49 35 -62 l33 -15 0
-185 0 -185 -33 -15 c-28 -13 -32 -21 -35 -59 -2 -31 2 -49 15 -63 17 -19 28
-20 188 -16 151 3 176 6 222 27 65 29 134 101 159 166 28 73 27 233 -2 296
-45 98 -125 157 -239 178 -94 17 -296 14 -323 -5z m343 -154 c60 -29 87 -82
87 -170 0 -126 -46 -181 -157 -188 l-65 -4 0 191 0 191 47 0 c26 0 65 -9 88
-20z"/>
<path d="M7988 3703 c-31 -40 -29 -53 10 -54 15 0 21 -3 15 -6 -24 -9 -13 -23
17 -23 17 0 30 5 30 10 0 6 -5 10 -11 10 -5 0 -7 5 -4 10 10 16 23 12 30 -9
13 -43 79 -29 90 19 16 74 -63 110 -96 43 -18 -37 -29 -33 -29 9 0 38 -19 35
-52 -9z m147 -23 c0 -28 -4 -35 -20 -35 -13 0 -21 8 -23 23 -5 34 5 54 25 50
13 -2 18 -13 18 -38z m-123 -2 c-7 -7 -12 -8 -12 -2 0 14 12 26 19 19 2 -3 -1
-11 -7 -17z"/>
<path d="M8228 3728 c7 -7 12 -28 12 -48 0 -20 -5 -41 -12 -48 -9 -9 -5 -12
20 -12 18 0 32 5 32 10 0 6 -4 10 -10 10 -5 0 -10 7 -10 15 0 8 9 15 20 15 11
0 20 5 20 10 0 6 -9 10 -20 10 -11 0 -20 7 -20 15 0 8 9 15 20 15 11 0 20 -4
20 -9 0 -5 11 -8 25 -8 14 0 25 3 25 8 0 5 5 9 11 9 8 0 10 -17 7 -50 -5 -46
-3 -50 17 -50 20 0 22 4 17 50 -3 33 -1 50 7 50 6 0 11 -4 11 -10 0 -5 5 -10
10 -10 6 0 10 9 10 20 0 19 -7 20 -112 20 -87 0 -109 -3 -100 -12z"/>
<path d="M152 3698 c-15 -15 -16 -48 -2 -48 6 0 13 7 16 15 8 19 34 20 34 1 0
-8 -9 -18 -20 -21 -25 -8 -54 -50 -45 -65 10 -17 93 -12 103 6 8 14 10 14 21
0 38 -46 103 21 80 81 -17 45 -54 57 -84 27 -15 -15 -17 -15 -34 0 -21 19 -52
21 -69 4z m153 -59 c0 -24 -5 -34 -15 -34 -16 0 -25 37 -16 62 10 26 31 8 31
-28z m-90 -25 c-38 -20 -45 -17 -15 5 13 11 28 17 33 14 5 -3 -4 -11 -18 -19z"/>
<path d="M8440 3631 c0 -6 5 -13 10 -16 6 -3 10 1 10 9 0 9 -4 16 -10 16 -5 0
-10 -4 -10 -9z"/>
<path d="M7920 3570 c0 -6 102 -10 285 -10 183 0 285 4 285 10 0 6 -102 10
-285 10 -183 0 -285 -4 -285 -10z"/>
<path d="M83 3538 c-13 -22 18 -28 143 -28 110 0 134 3 134 14 0 12 -25 15
-136 18 -75 2 -138 0 -141 -4z"/>
<path d="M7975 3500 c-16 -18 -16 -20 -2 -20 13 0 17 -9 17 -35 0 -25 -4 -35
-16 -35 -8 0 -13 -4 -9 -9 3 -5 73 -10 155 -10 125 -1 150 1 150 13 0 19 -17
29 -25 16 -3 -5 -16 -10 -28 -9 -21 0 -21 1 -3 12 28 17 56 46 56 56 0 16 -31
41 -50 41 -26 0 -54 -30 -41 -43 8 -8 15 -5 25 9 12 15 17 17 28 6 11 -11 6
-19 -27 -47 -41 -35 -65 -44 -65 -23 0 9 -3 9 -12 0 -7 -7 -21 -12 -32 -12
-18 0 -16 4 12 26 17 14 32 34 32 44 0 40 -61 54 -84 18 -15 -24 0 -34 22 -15
12 11 22 13 32 6 13 -8 11 -13 -10 -27 -13 -9 -33 -25 -42 -34 -29 -28 -37
-21 -40 34 -3 57 -16 68 -43 38z"/>
<path d="M8325 3511 c-3 -6 -1 -11 4 -11 6 0 11 -20 11 -45 0 -25 -5 -45 -11
-45 -5 0 -7 -4 -4 -10 7 -12 55 -14 55 -2 0 4 -5 13 -11 19 -6 6 -9 17 -6 25
3 8 9 2 16 -15 12 -30 27 -28 42 7 8 17 9 15 5 -11 -5 -29 -3 -33 17 -33 20 0
22 4 22 65 0 55 -3 65 -17 65 -11 0 -24 -15 -34 -37 l-16 -38 -16 35 c-17 35
-45 50 -57 31z"/>
<path d="M162 3439 c-35 -46 -34 -59 6 -60 15 0 21 -3 15 -6 -25 -10 -12 -23
23 -23 32 0 35 2 29 23 l-7 22 16 -21 c24 -34 54 -36 83 -8 20 20 24 32 19 56
-8 40 -23 58 -50 58 -29 0 -43 -11 -57 -45 l-13 -30 -4 38 c-4 48 -20 47 -60
-4z m148 -22 c0 -38 -6 -48 -26 -40 -14 5 -20 54 -7 66 17 18 33 5 33 -26z"/>
<path d="M9292 2980 c-177 -37 -272 -193 -272 -445 0 -249 97 -403 273 -435
147 -28 300 41 364 163 25 49 30 186 8 244 -22 57 -76 118 -129 146 -56 29
-220 36 -297 14 -29 -9 -55 -15 -56 -13 -10 10 42 117 69 143 42 41 110 59
165 44 48 -13 68 -33 85 -86 l13 -40 65 0 65 0 3 35 c8 82 -51 172 -136 208
-57 25 -159 35 -220 22z m162 -448 c94 -55 102 -201 13 -264 -41 -29 -141 -37
-185 -14 -54 28 -92 100 -106 202 l-7 50 39 18 c22 10 55 22 73 27 47 11 138
2 173 -19z"/>
<path d="M1364 2716 c-3 -8 -4 -29 -2 -47 2 -26 9 -34 28 -39 l25 -6 3 -157
c2 -149 1 -157 -17 -157 -27 0 -43 -24 -39 -62 l3 -33 200 0 200 0 3 74 c3 80
-2 91 -48 91 -32 0 -50 -17 -50 -47 0 -22 -3 -23 -75 -23 l-75 0 0 55 0 55 84
0 c90 0 96 4 96 55 0 34 -27 45 -109 45 l-71 0 0 55 0 55 75 0 c71 0 75 -1 75
-22 0 -38 14 -50 56 -46 l39 3 0 80 0 80 -198 3 c-164 2 -198 0 -203 -12z"/>
<path d="M2464 2717 c-3 -8 -4 -30 -2 -49 2 -28 7 -34 31 -36 l27 -3 0 -157 0
-158 -31 -11 c-27 -11 -30 -15 -27 -50 l3 -38 130 -3 c149 -3 196 6 250 51
104 86 116 288 22 385 -63 66 -96 76 -254 80 -120 3 -144 1 -149 -11z m285
-105 c48 -26 71 -73 71 -148 0 -103 -48 -154 -147 -154 l-53 0 0 160 0 160 48
0 c27 0 62 -8 81 -18z"/>
<path d="M3578 2705 c-15 -33 3 -75 32 -75 19 0 20 -6 20 -159 l0 -159 -25 -6
c-29 -7 -42 -45 -25 -75 10 -20 18 -21 123 -19 l112 3 3 33 c4 42 -12 62 -49
62 -28 0 -29 1 -29 55 l0 54 78 3 77 3 3 39 c4 49 -6 56 -90 56 l-68 0 0 55 0
55 69 0 70 0 3 -32 c3 -32 5 -33 48 -33 l45 0 3 68 c2 42 -2 74 -9 83 -9 11
-49 14 -195 14 l-184 0 -12 -25z"/>
<path d="M4796 2710 c-91 -46 -136 -123 -136 -234 0 -88 15 -136 58 -186 91
-107 258 -117 364 -22 64 58 69 91 17 118 -28 14 -30 14 -62 -20 -43 -45 -66
-56 -124 -56 -93 0 -143 55 -143 157 0 71 23 119 71 145 67 36 154 10 175 -53
10 -29 16 -34 48 -37 57 -5 66 8 66 102 0 50 -5 87 -12 94 -16 16 -73 15 -87
-2 -10 -12 -16 -12 -39 0 -40 21 -149 17 -196 -6z"/>
<path d="M5764 2717 c-3 -8 -4 -43 -2 -78 l3 -64 45 0 c42 0 45 2 48 28 3 27
4 27 79 27 59 0 73 -3 66 -12 -6 -7 -63 -85 -127 -173 -103 -141 -117 -164
-114 -195 l3 -35 195 0 195 0 0 75 0 75 -33 3 c-38 4 -62 -12 -62 -39 0 -17
-8 -19 -75 -19 l-75 0 126 170 c115 155 125 173 122 207 l-3 38 -193 3 c-156
2 -193 0 -198 -11z"/>
<path d="M6894 2719 c-21 -34 -5 -89 26 -89 19 0 20 -8 20 -159 l0 -159 -24
-6 c-17 -4 -25 -14 -28 -36 -8 -55 5 -61 122 -58 l105 3 3 33 c4 40 -12 62
-45 62 -22 0 -24 4 -21 38 l3 37 70 5 c121 9 176 60 176 164 0 83 -30 130
-104 161 -45 19 -292 22 -303 4z m281 -114 c14 -13 25 -36 25 -50 0 -14 -11
-37 -25 -50 -19 -20 -34 -25 -75 -25 l-50 0 0 75 0 75 50 0 c41 0 56 -5 75
-25z"/>
<path d="M8012 2688 c-15 -15 -16 -38 -2 -38 6 0 10 5 10 10 0 6 9 10 20 10
26 0 26 -16 -1 -23 -23 -6 -17 -27 7 -27 8 0 14 -5 14 -10 0 -16 -29 -23 -44
-11 -17 14 -29 2 -15 -16 16 -19 66 -16 77 4 9 16 11 16 27 0 19 -20 58 -22
73 -4 25 30 14 102 -18 112 -29 9 -60 -12 -67 -45 -3 -16 -9 -27 -13 -25 -5 3
-6 14 -3 25 10 39 -37 66 -65 38z m156 -48 c3 -33 -12 -55 -32 -47 -11 4 -16
19 -16 42 0 32 3 36 23 33 15 -2 23 -11 25 -28z"/>
<path d="M8255 2690 c-3 -5 -1 -11 5 -15 13 -8 13 -72 0 -80 -20 -12 -9 -25
20 -25 17 0 30 5 30 10 0 6 -4 10 -10 10 -5 0 -10 7 -10 15 0 8 9 15 20 15 11
0 20 5 20 10 0 6 -9 10 -20 10 -11 0 -20 7 -20 15 0 17 18 19 54 5 16 -6 27
-6 31 0 4 6 10 10 16 10 13 0 11 -74 -3 -88 -9 -9 -5 -12 20 -12 18 0 32 5 32
10 0 6 -4 10 -10 10 -5 0 -10 18 -10 40 0 41 7 49 27 29 13 -13 27 5 19 26 -4
11 -28 14 -105 14 -56 0 -103 -4 -106 -9z"/>
<path d="M158 2629 c-10 -5 -18 -19 -18 -29 0 -23 18 -27 26 -5 8 19 34 20 34
0 0 -8 -13 -21 -29 -29 -27 -14 -46 -48 -33 -60 12 -13 93 -6 98 9 5 13 8 13
21 0 28 -29 65 -16 82 28 11 29 6 52 -17 80 -20 22 -45 22 -66 -2 -17 -19 -18
-19 -37 0 -21 21 -36 23 -61 8z m147 -60 c0 -24 -5 -34 -15 -34 -16 0 -25 37
-16 62 10 26 31 8 31 -28z m-65 -20 c0 -6 -4 -8 -9 -4 -5 3 -12 1 -16 -5 -3
-5 -14 -10 -23 -10 -13 0 -12 5 8 19 24 19 40 19 40 0z"/>
<path d="M8470 2580 c0 -5 5 -10 10 -10 6 0 10 5 10 10 0 6 -4 10 -10 10 -5 0
-10 -4 -10 -10z"/>
<path d="M7940 2510 c0 -6 102 -10 286 -10 187 0 283 3 279 10 -4 6 -110 10
-286 10 -179 0 -279 -4 -279 -10z"/>
<path d="M87 2483 c-19 -19 5 -23 133 -23 118 0 140 2 140 15 0 13 -21 15
-133 15 -74 0 -137 -3 -140 -7z"/>
<path d="M8006 2461 c-13 -14 -16 -26 -10 -43 4 -13 8 -32 8 -43 1 -26 47 -32
70 -10 22 22 21 78 -2 98 -24 22 -45 21 -66 -2z m54 -32 c0 -25 -33 -22 -38 4
-2 12 3 17 17 17 15 0 21 -6 21 -21z m-8 -51 c-9 -9 -15 -9 -24 0 -9 9 -7 12
12 12 19 0 21 -3 12 -12z"/>
<path d="M8138 2466 c-22 -16 -23 -26 -3 -26 10 0 15 -11 15 -35 0 -32 -2 -35
-30 -35 -16 0 -30 -4 -30 -10 0 -5 25 -10 55 -10 30 0 55 5 55 10 0 6 -7 10
-15 10 -12 0 -15 13 -15 55 0 58 -4 63 -32 41z"/>
<path d="M8232 2441 c-18 -22 -32 -42 -32 -45 0 -3 14 -6 30 -6 17 0 30 -4 30
-10 0 -5 -4 -10 -10 -10 -5 0 -10 -4 -10 -10 0 -5 14 -10 30 -10 17 0 30 5 30
10 0 6 -5 10 -11 10 -8 0 -8 4 0 14 8 10 9 16 1 21 -5 3 -10 22 -10 41 0 19
-4 34 -8 34 -5 0 -23 -18 -40 -39z m28 -21 c0 -5 -5 -10 -11 -10 -5 0 -7 5 -4
10 3 6 8 10 11 10 2 0 4 -4 4 -10z"/>
<path d="M8365 2415 c0 -61 1 -65 23 -65 24 0 28 10 11 27 -6 6 -9 17 -6 25 3
8 9 3 16 -14 6 -16 15 -28 20 -28 5 0 14 12 20 28 l11 27 -5 -32 c-4 -29 -2
-33 18 -33 20 0 22 4 22 65 0 54 -3 65 -17 65 -10 0 -22 -14 -29 -35 -7 -19
-16 -35 -19 -35 -4 0 -13 15 -21 32 -8 18 -21 34 -29 36 -13 2 -15 -10 -15
-63z"/>
<path d="M156 2414 c-9 -8 -16 -19 -16 -24 0 -17 18 -20 30 -5 7 8 17 12 23 8
6 -4 3 -12 -9 -20 -18 -13 -18 -15 -1 -24 28 -16 20 -31 -13 -24 -23 5 -30 3
-30 -8 0 -28 59 -37 83 -12 13 13 16 13 27 0 16 -20 55 -19 74 1 9 9 16 32 16
54 0 31 -5 43 -26 56 -24 16 -27 16 -52 -3 -26 -18 -28 -18 -44 -1 -22 22 -42
23 -62 2z m149 -55 c0 -23 -5 -35 -16 -37 -21 -4 -32 34 -18 60 15 29 34 16
34 -23z"/>
<path d="M1230 1925 l0 -55 3125 0 3125 0 0 55 0 55 -3125 0 -3125 0 0 -55z"/>
<path d="M9042 1858 c-16 -16 -16 -190 0 -206 16 -16 113 -16 126 1 6 6 12 28
14 47 l3 35 168 3 c130 2 167 0 167 -10 0 -29 -52 -121 -116 -204 -108 -142
-145 -248 -148 -424 l-1 -105 58 -3 c75 -4 87 6 87 73 0 82 27 204 60 271 16
34 63 107 104 163 94 129 111 171 111 281 l0 85 -310 3 c-233 2 -314 -1 -323
-10z"/>
<path d="M6683 1579 c-25 -25 -12 -79 18 -79 18 0 19 -9 19 -129 0 -120 -1
-129 -20 -134 -25 -6 -34 -29 -26 -62 6 -25 7 -25 127 -25 99 0 126 3 158 20
81 41 115 111 109 220 -3 54 -9 76 -32 108 -45 65 -99 86 -231 90 -80 3 -113
0 -122 -9z m209 -89 c57 -16 78 -50 78 -126 0 -85 -24 -114 -98 -122 l-52 -5
0 132 c0 146 -3 141 72 121z"/>
<path d="M1708 1559 c-28 -16 -23 -67 7 -81 25 -11 25 -13 25 -133 0 -121 0
-122 -26 -133 -21 -10 -25 -18 -22 -45 l3 -32 103 -3 102 -3 0 41 c0 37 -3 41
-30 47 -27 5 -30 9 -30 44 l0 38 63 3 62 3 0 40 0 40 -62 3 -63 3 0 39 0 40
50 0 c43 0 50 -3 50 -20 0 -25 35 -44 66 -36 22 6 24 11 24 75 0 54 -4 70 -16
75 -26 10 -288 6 -306 -5z"/>
<path d="M2552 1558 c-22 -22 -14 -67 13 -80 25 -11 25 -13 25 -133 0 -121 0
-122 -26 -133 -21 -10 -25 -18 -22 -45 l3 -32 170 0 170 0 3 62 c3 58 1 64
-21 74 -31 14 -67 -3 -67 -31 0 -18 -7 -20 -60 -20 l-60 0 0 40 0 40 63 0 c67
0 87 10 87 45 0 35 -20 45 -87 45 l-63 0 0 40 0 40 50 0 c28 0 53 0 58 1 4 0
9 -10 12 -22 8 -33 33 -45 64 -31 24 11 26 17 26 71 0 49 -4 62 -19 71 -28 15
-304 13 -319 -2z"/>
<path d="M3376 1554 c-9 -8 -16 -24 -16 -34 0 -19 25 -50 41 -50 5 0 9 -54 9
-124 0 -115 -2 -125 -19 -131 -23 -7 -35 -37 -26 -65 6 -19 15 -20 180 -20
193 0 185 -3 185 75 0 47 -19 75 -50 75 -22 0 -50 -26 -50 -46 0 -11 -15 -14
-60 -14 l-60 0 0 123 c0 122 0 124 25 135 32 15 35 66 6 82 -32 16 -147 13
-165 -6z"/>
<path d="M4306 1555 c-95 -34 -141 -102 -141 -210 0 -59 5 -78 28 -117 40 -69
102 -103 189 -103 58 0 72 4 110 30 114 81 131 253 34 350 -62 61 -140 79
-220 50z m109 -89 c68 -29 96 -126 55 -193 -23 -39 -52 -55 -96 -55 -124 0
-156 197 -41 247 40 18 41 18 82 1z"/>
<path d="M5038 1560 c-28 -17 -23 -68 7 -82 25 -11 25 -13 25 -133 0 -121 0
-122 -26 -133 -21 -10 -25 -18 -22 -45 l3 -32 98 -3 97 -3 0 41 c0 37 -3 41
-30 47 -23 4 -30 11 -30 29 0 21 5 24 38 24 62 0 109 18 141 56 57 65 36 180
-41 220 -40 21 -233 31 -260 14z m227 -113 c20 -29 19 -43 -5 -67 -13 -13 -33
-20 -60 -20 l-40 0 0 53 c0 30 2 56 4 58 3 3 23 3 46 1 27 -3 45 -11 55 -25z"/>
<path d="M5836 1554 c-21 -21 -21 -97 0 -119 23 -22 67 -15 79 13 8 19 17 22
62 22 l53 0 -105 -142 c-149 -201 -149 -200 76 -196 l164 3 0 59 c0 66 -14 83
-58 72 -18 -4 -27 -13 -27 -26 0 -18 -7 -20 -56 -20 -41 0 -53 3 -48 13 5 6
50 69 101 138 97 132 111 169 74 189 -11 5 -82 10 -160 10 -114 0 -142 -3
-155 -16z"/>
<path d="M8042 1548 c-14 -14 -16 -38 -2 -38 5 0 13 7 18 17 6 10 16 14 26 10
25 -10 19 -23 -19 -46 -22 -13 -35 -28 -35 -41 0 -17 6 -20 44 -20 24 0 46 5
48 11 3 9 10 8 25 -2 17 -10 27 -10 47 -1 42 19 30 82 -16 82 -10 0 -18 5 -18
11 0 7 11 8 31 4 24 -6 30 -4 27 6 -3 8 -21 15 -41 17 -36 3 -37 2 -37 -30 0
-30 3 -34 28 -33 17 0 27 -5 27 -15 0 -12 -15 -15 -68 -16 l-68 -1 31 18 c49
30 38 79 -19 79 -9 0 -22 -5 -29 -12z"/>
<path d="M8285 1495 c0 -60 2 -65 22 -65 24 0 39 15 23 25 -18 11 -11 35 10
35 11 0 20 5 20 10 0 6 -9 10 -20 10 -11 0 -20 7 -20 15 0 15 21 20 34 8 11
-11 45 -13 51 -3 3 6 10 10 16 10 12 0 12 -77 -1 -85 -15 -9 -2 -25 20 -25 17
0 18 6 13 55 -4 36 -2 55 5 55 6 0 12 -6 15 -12 3 -10 7 -10 17 -1 26 24 -2
33 -103 33 l-102 0 0 -65z"/>
<path d="M219 1481 c-19 -16 -22 -22 -12 -32 11 -10 16 -9 27 7 12 16 17 17
28 5 10 -10 10 -15 1 -18 -28 -10 -63 -46 -63 -64 0 -16 7 -19 50 -19 40 0 50
3 50 17 0 15 1 15 18 0 60 -54 129 46 72 103 -25 25 -45 25 -67 3 -17 -17 -19
-17 -35 0 -23 22 -40 22 -69 -2z m157 -36 c8 -31 -1 -55 -20 -55 -21 0 -32 46
-16 65 18 22 29 19 36 -10z m-77 -39 c-2 -2 -15 -7 -29 -10 l-25 -7 25 20 c14
11 27 15 29 10 1 -6 1 -12 0 -13z"/>
<path d="M8496 1451 c-4 -5 -2 -12 3 -15 5 -4 12 -2 15 3 4 5 2 12 -3 15 -5 4
-12 2 -15 -3z"/>
<path d="M7990 1390 c0 -6 100 -10 280 -10 180 0 280 4 280 10 0 6 -100 10
-280 10 -180 0 -280 -4 -280 -10z"/>
<path d="M8020 1330 c0 -21 15 -27 25 -10 7 11 45 14 45 3 0 -3 -7 -14 -15
-23 -20 -22 -31 -80 -16 -80 6 0 14 8 17 18 3 9 14 35 24 56 10 22 17 43 14
48 -3 4 -25 8 -50 8 -37 0 -44 -3 -44 -20z"/>
<path d="M8156 1328 c-33 -47 -11 -108 40 -108 17 0 28 8 36 26 11 23 10 29
-10 45 -13 10 -30 15 -37 12 -8 -3 -15 -1 -15 5 0 14 28 23 35 12 9 -15 25
-12 25 4 0 14 -21 26 -45 26 -8 0 -21 -10 -29 -22z m52 -65 c-2 -10 -10 -18
-18 -18 -8 0 -16 8 -18 18 -2 12 3 17 18 17 15 0 20 -5 18 -17z"/>
<path d="M8256 1334 c-9 -8 -16 -20 -16 -25 0 -15 27 -10 34 6 6 16 36 9 36
-9 -1 -6 -15 -20 -33 -31 -17 -11 -33 -28 -35 -38 -3 -14 4 -17 47 -17 36 0
51 4 51 13 0 21 -12 28 -26 16 -7 -6 -21 -9 -31 -7 -14 3 -12 7 13 21 40 21
49 44 28 68 -21 23 -47 24 -68 3z"/>
<path d="M8395 1341 c-3 -5 -1 -12 5 -16 13 -8 13 -85 0 -85 -5 0 -10 -4 -10
-10 0 -5 14 -10 30 -10 17 0 30 5 30 10 0 6 -4 10 -10 10 -5 0 -10 10 -10 23
1 21 2 20 16 -5 8 -16 17 -28 19 -28 2 0 12 12 20 28 l16 27 -5 -32 c-5 -30
-3 -33 19 -33 25 0 33 14 15 25 -5 3 -10 21 -10 40 0 19 5 37 10 40 17 11 11
25 -11 25 -14 0 -25 -11 -36 -37 l-15 -38 -19 38 c-19 35 -41 47 -54 28z"/>
<path d="M167 1334 c-19 -20 5 -24 134 -24 108 0 140 3 137 13 -5 13 -258 24
-271 11z"/>
<path d="M219 1261 c-19 -16 -22 -22 -12 -32 11 -10 16 -9 27 7 12 16 17 17
28 5 10 -10 10 -15 1 -18 -28 -10 -63 -46 -63 -64 0 -18 7 -19 83 -17 45 1 90
5 100 10 18 9 24 53 7 63 -5 3 -7 19 -3 35 5 29 5 30 -36 30 l-41 0 0 -40 c0
-38 2 -40 24 -34 14 3 27 1 31 -6 11 -17 -11 -34 -32 -25 -21 9 -19 9 -58 1
l-30 -6 28 21 c32 24 36 64 8 79 -27 14 -35 13 -62 -9z m146 -21 c3 -5 -1 -10
-9 -10 -9 0 -16 5 -16 10 0 6 4 10 9 10 6 0 13 -4 16 -10z"/>
<path d="M8120 1230 c0 -5 5 -10 10 -10 6 0 10 5 10 10 0 6 -4 10 -10 10 -5 0
-10 -4 -10 -10z"/>
<path d="M9242 871 c-100 -34 -165 -123 -165 -222 1 -62 22 -113 60 -145 l25
-21 -32 -23 c-48 -34 -80 -111 -80 -190 0 -83 23 -133 84 -187 67 -59 129 -78
251 -78 108 1 161 17 232 71 111 85 123 277 22 369 l-41 37 25 26 c112 117 48
318 -117 367 -69 21 -198 19 -264 -4z m225 -138 c47 -22 70 -70 57 -120 -7
-31 -17 -42 -54 -60 -77 -39 -186 -25 -224 28 -21 30 -21 88 0 118 35 49 151
68 221 34z m23 -348 c90 -47 85 -164 -11 -220 -44 -25 -159 -26 -207 -1 -84
43 -97 164 -23 213 14 9 39 20 56 24 43 12 149 2 185 -16z"/>
<path d="M1928 664 c-15 -15 -8 -46 12 -51 18 -5 20 -14 20 -105 0 -91 -2
-101 -22 -118 -19 -15 -21 -22 -12 -37 10 -15 25 -18 102 -17 105 2 144 18
177 74 28 49 28 148 -1 186 -43 58 -68 69 -172 72 -53 2 -100 0 -104 -4z m197
-76 c28 -25 42 -80 31 -122 -10 -40 -45 -66 -88 -66 l-38 0 0 105 0 105 34 0
c22 0 45 -9 61 -22z"/>
<path d="M2607 664 c-14 -15 -6 -46 13 -51 18 -5 20 -14 20 -108 0 -95 -2
-104 -20 -110 -24 -8 -27 -50 -4 -59 24 -9 227 -7 242 3 9 5 12 24 10 52 -3
40 -6 44 -30 47 -26 3 -33 -5 -29 -30 0 -5 -24 -8 -54 -8 l-55 0 0 35 0 34 58
3 c53 3 57 5 57 28 0 23 -4 25 -55 30 l-55 5 0 35 0 35 53 3 c46 3 52 1 52
-17 0 -25 14 -34 41 -26 17 6 20 14 17 53 l-3 47 -126 3 c-69 1 -128 -1 -132
-4z"/>
<path d="M3255 660 c-10 -16 5 -50 21 -50 11 0 14 -20 14 -101 0 -92 -2 -102
-22 -119 -35 -29 -14 -54 47 -58 75 -5 97 3 93 36 -2 19 -9 28 -25 30 -19 3
-23 10 -23 38 0 34 1 34 44 34 47 0 70 17 60 44 -4 12 -19 16 -55 16 l-49 0 0
40 0 40 44 0 c39 0 45 -3 48 -22 2 -17 10 -23 28 -23 23 0 25 4 28 53 l3 52
-125 0 c-73 0 -127 -4 -131 -10z"/>
<path d="M3917 663 c-14 -14 -6 -45 13 -50 18 -5 20 -14 20 -108 0 -95 -2
-104 -20 -110 -22 -7 -26 -35 -8 -53 12 -12 95 -16 122 -6 24 9 20 55 -4 61
-13 3 -20 14 -20 28 0 20 6 23 52 27 42 4 57 11 80 37 42 46 39 102 -6 147
-34 34 -34 34 -128 34 -52 0 -98 -3 -101 -7z m181 -65 c7 -7 12 -24 12 -38 0
-35 -17 -50 -57 -50 -33 0 -33 0 -33 50 0 50 0 50 33 50 18 0 38 -5 45 -12z"/>
<path d="M4664 650 c-136 -42 -151 -249 -23 -315 43 -23 120 -19 160 8 41 27
79 98 79 146 0 49 -36 117 -74 140 -39 25 -100 33 -142 21z m115 -84 c30 -32
38 -94 17 -135 -21 -40 -54 -55 -101 -47 -71 14 -100 115 -49 175 34 41 98 44
133 7z"/>
<path d="M5244 626 c-3 -8 -4 -31 -2 -52 3 -36 5 -39 33 -39 23 0 31 5 33 23
3 16 10 22 28 22 24 0 24 -1 24 -101 0 -92 -2 -102 -22 -119 -19 -15 -21 -22
-12 -37 9 -14 24 -18 70 -18 55 0 59 2 62 24 2 15 -3 28 -12 33 -13 7 -16 28
-16 113 l0 105 25 0 c20 0 25 -5 25 -25 0 -21 5 -25 30 -25 30 0 30 1 30 55
l0 55 -145 0 c-115 0 -147 -3 -151 -14z"/>
<path d="M5927 634 c-14 -15 -6 -46 13 -51 18 -5 20 -14 20 -108 0 -95 -2
-104 -20 -110 -24 -8 -27 -50 -4 -59 24 -9 227 -7 242 3 9 5 12 24 10 52 -3
40 -6 44 -30 47 -23 3 -28 -1 -28 -17 0 -18 -6 -21 -50 -21 l-50 0 0 34 0 35
53 3 c48 3 52 5 52 28 0 23 -4 25 -52 28 l-53 3 0 40 0 39 49 0 c44 0 50 -3
53 -22 2 -17 10 -23 28 -23 23 0 25 3 25 50 l0 50 -126 3 c-69 1 -128 -1 -132
-4z"/>
<path d="M6633 620 c-40 -24 -64 -60 -73 -111 -23 -122 69 -222 186 -204 55 8
117 57 112 89 -4 31 -39 31 -68 1 -18 -19 -34 -25 -65 -25 -51 0 -80 20 -95
66 -23 69 21 144 85 144 28 0 72 -29 78 -50 4 -17 12 -21 34 -18 27 3 28 5 28
63 0 55 -2 60 -23 63 -13 2 -29 -1 -35 -7 -8 -6 -18 -6 -27 -1 -26 17 -103 11
-137 -10z"/>
<path d="M216 504 c-19 -18 -20 -30 -5 -39 6 -4 16 1 24 11 12 16 16 17 27 5
11 -11 11 -14 0 -18 -31 -11 -65 -50 -59 -66 9 -23 97 -24 97 -1 0 14 2 14 22
0 30 -21 44 -20 68 4 26 26 26 81 0 105 -22 20 -67 14 -76 -10 -4 -11 -9 -10
-25 6 -23 23 -52 24 -73 3z m162 -44 c1 -14 -2 -32 -8 -40 -16 -25 -44 11 -36
45 9 34 40 30 44 -5z m-94 -35 c-29 -22 -42 -17 -15 6 13 11 26 17 29 14 3 -3
-3 -12 -14 -20z"/>
<path d="M8061 456 c-20 -24 -3 -41 20 -20 16 14 22 15 32 5 9 -10 8 -15 -7
-25 -32 -19 -56 -45 -56 -61 0 -11 12 -15 44 -15 25 0 48 5 52 11 8 14 -14 37
-24 24 -9 -13 -32 -17 -32 -6 0 5 12 16 26 25 18 13 24 24 22 44 -2 22 -9 28
-34 30 -18 2 -36 -3 -43 -12z"/>
<path d="M8167 452 c-48 -53 17 -146 67 -96 19 18 21 85 4 102 -18 18 -53 15
-71 -6z m53 -16 c18 -23 8 -61 -17 -64 -20 -3 -23 1 -23 31 0 47 16 61 40 33z"/>
<path d="M8310 460 c0 -5 5 -12 10 -15 6 -3 10 -21 10 -40 0 -19 -4 -37 -10
-40 -20 -12 -9 -25 20 -25 29 0 40 13 20 25 -18 11 -11 35 10 35 11 0 20 5 20
10 0 6 -9 10 -20 10 -11 0 -20 7 -20 15 0 16 25 21 34 6 3 -5 17 -8 31 -8 14
0 25 3 25 8 0 5 5 9 10 9 14 0 13 -73 -2 -88 -14 -14 13 -27 39 -18 12 5 14 9
5 18 -15 15 -16 88 -2 88 6 0 10 -4 10 -10 0 -5 7 -10 15 -10 8 0 15 9 15 20
0 18 -7 19 -110 19 -60 0 -110 -4 -110 -9z"/>
<path d="M8530 355 c0 -8 5 -15 10 -15 6 0 10 7 10 15 0 8 -4 15 -10 15 -5 0
-10 -7 -10 -15z"/>
<path d="M160 335 c0 -13 20 -15 137 -13 98 2 138 6 141 16 3 9 -29 12 -137
12 -120 0 -141 -2 -141 -15z"/>
<path d="M8000 300 c0 -6 100 -10 280 -10 180 0 280 4 280 10 0 6 -100 10
-280 10 -180 0 -280 -4 -280 -10z"/>
<path d="M216 284 c-19 -18 -20 -30 -5 -39 6 -4 16 1 24 11 12 16 16 17 27 5
11 -11 11 -14 0 -18 -31 -11 -65 -50 -59 -66 9 -23 97 -24 97 -1 0 14 2 14 22
0 30 -21 44 -20 68 4 26 26 26 81 0 105 -22 20 -67 14 -76 -10 -4 -11 -9 -10
-25 6 -23 23 -52 24 -73 3z m162 -44 c1 -14 -2 -32 -8 -40 -16 -25 -44 11 -36
45 9 34 40 30 44 -5z m-94 -35 c-10 -8 -26 -14 -34 -15 -8 0 -2 9 15 20 33 22
49 18 19 -5z"/>
<path d="M8052 258 c-6 -6 -12 -29 -12 -50 0 -47 35 -77 70 -58 17 9 20 19 18
63 -3 50 -4 52 -33 55 -17 2 -36 -3 -43 -10z m53 -18 c3 -5 -3 -10 -14 -10
-12 0 -21 5 -21 10 0 6 6 10 14 10 8 0 18 -4 21 -10z m3 -47 c5 -17 -26 -29
-40 -15 -6 6 -7 15 -3 22 9 14 37 9 43 -7z"/>
<path d="M8177 259 c-9 -6 -15 -15 -12 -20 4 -5 11 -7 16 -4 5 4 9 -10 9 -29
0 -34 -7 -41 -37 -37 -7 1 -13 -4 -13 -11 0 -9 14 -12 50 -10 27 2 50 8 50 13
0 5 -4 9 -10 9 -5 0 -10 23 -10 50 0 52 -8 59 -43 39z"/>
<path d="M8262 258 c-6 -6 -12 -29 -12 -50 0 -71 79 -89 96 -21 11 43 -7 78
-41 81 -17 2 -36 -3 -43 -10z m57 -26 c14 -27 2 -62 -20 -62 -24 0 -33 21 -25
55 7 29 31 33 45 7z"/>
<path d="M8415 210 c0 -55 2 -60 22 -60 20 0 21 3 13 25 -5 14 -6 25 -1 25 5
0 11 -9 14 -20 7 -27 25 -25 38 3 9 20 9 20 4 -5 -5 -24 -2 -28 17 -28 21 0
23 4 23 60 0 51 -3 60 -18 60 -11 0 -22 -12 -28 -30 -6 -16 -15 -30 -19 -30
-4 0 -13 14 -19 30 -6 18 -17 30 -28 30 -15 0 -18 -9 -18 -60z"/>
</g>
</svg>
